<?xml version="1.0" encoding="iso-8859-1"?>
<!-- Uploaded to: SVG Repo, www.svgrepo.com, Generator: SVG Repo Mixer Tools -->
<!DOCTYPE svg PUBLIC "-//W3C//DTD SVG 1.1//EN" "http://www.w3.org/Graphics/SVG/1.1/DTD/svg11.dtd">
<svg fill="#000000" version="1.1" id="Capa_1" xmlns="http://www.w3.org/2000/svg" xmlns:xlink="http://www.w3.org/1999/xlink" 
	 width="800px" height="800px" viewBox="0 0 93.178 93.178"
	 xml:space="preserve">
<g>
	<path d="M85.574,46.81c-0.133,0-0.264,0.014-0.396,0.021v-0.083L8.477,46.776c-0.183,0-1.393,0.032-1.9,0.032
		c-3.452,0-6.25,3.405-6.25,7.604s2.798,7.604,6.25,7.604c0.706,0,2.277,0.032,2.505,0.032l76.097,0.03v-0.083
		c0.132,0.007,0.261,0.02,0.396,0.02c4.199,0,7.604-3.405,7.604-7.604C93.178,50.215,89.773,46.81,85.574,46.81z M31.495,60.366
		c-0.625,0.396-1.321,0.642-2.063,0.685h-18.81c1.626-1.487,2.504-3.735,2.504-6.483c0-2.906-1.034-5.293-2.889-6.789l19.182-0.002
		c0.747,0.041,1.447,0.287,2.076,0.687c1.298,1.699,1.938,3.851,1.938,5.952C33.434,56.717,32.691,58.802,31.495,60.366z
		 M0.759,42.049c-0.255-0.319-0.494-0.729-0.631-1.236C0.043,40.567,0.035,40.278,0,39.992c0.027-0.286,0.033-0.606,0.145-0.886
		c0.101-0.287,0.206-0.589,0.382-0.828c0.156-0.265,0.334-0.512,0.549-0.699c0.206-0.206,0.412-0.423,0.645-0.563l0.613-0.426
		l0.602-0.399c0.16-0.13,0.243-0.227,0.379-0.331c0.123-0.105,0.203-0.253,0.327-0.366c0.087-0.129,0.153-0.262,0.226-0.396
		c0.075-0.278,0.174-0.573,0.136-0.9c-0.01-0.319-0.093-0.654-0.185-0.966c-0.204-0.622-0.476-1.161-0.675-1.536
		c-0.2-0.377-0.332-0.597-0.332-0.597s0.24,0.088,0.621,0.323c0.375,0.239,0.906,0.615,1.396,1.263
		c0.241,0.325,0.499,0.71,0.637,1.207c0.175,0.479,0.217,1.076,0.101,1.677c-0.08,0.286-0.182,0.589-0.315,0.864
		c-0.16,0.253-0.303,0.531-0.521,0.755c-0.213,0.215-0.456,0.473-0.672,0.639L3.467,38.24l-0.583,0.383
		c-0.184,0.104-0.317,0.226-0.456,0.346c-0.156,0.115-0.266,0.239-0.369,0.362c-0.133,0.117-0.184,0.251-0.263,0.378
		c-0.094,0.126-0.079,0.27-0.158,0.403c-0.006,0.146-0.062,0.29-0.044,0.446c0.014,0.306,0.061,0.638,0.169,0.942
		c0.203,0.613,0.49,1.146,0.699,1.513c0.21,0.371,0.351,0.585,0.351,0.585s-0.242-0.081-0.63-0.305
		c-0.191-0.114-0.426-0.259-0.665-0.465C1.273,42.628,0.999,42.383,0.759,42.049z M5.431,40.532
		c0.154-0.154,0.308-0.317,0.482-0.422l0.458-0.318l0.45-0.299c0.12-0.097,0.182-0.169,0.284-0.248
		c0.092-0.079,0.152-0.189,0.245-0.274c0.065-0.097,0.114-0.196,0.169-0.296c0.057-0.208,0.131-0.429,0.102-0.674
		c-0.007-0.239-0.07-0.49-0.138-0.723c-0.153-0.465-0.356-0.869-0.505-1.149c-0.149-0.282-0.248-0.447-0.248-0.447
		s0.179,0.066,0.464,0.242c0.28,0.179,0.678,0.46,1.045,0.945c0.18,0.244,0.373,0.531,0.476,0.903
		c0.131,0.357,0.163,0.805,0.076,1.255c-0.06,0.214-0.136,0.441-0.236,0.646c-0.12,0.189-0.227,0.397-0.39,0.565
		c-0.159,0.161-0.341,0.354-0.503,0.478l-0.443,0.309l-0.437,0.287c-0.137,0.078-0.237,0.169-0.341,0.259
		c-0.117,0.086-0.199,0.179-0.276,0.271c-0.1,0.087-0.138,0.188-0.197,0.283c-0.07,0.094-0.059,0.202-0.118,0.302
		c-0.005,0.109-0.046,0.216-0.033,0.334c0.011,0.229,0.046,0.477,0.126,0.705c0.152,0.459,0.367,0.857,0.523,1.133
		c0.158,0.277,0.263,0.438,0.263,0.438s-0.182-0.06-0.472-0.229c-0.143-0.085-0.319-0.194-0.498-0.348
		c-0.183-0.151-0.388-0.334-0.567-0.583c-0.191-0.239-0.37-0.545-0.473-0.925c-0.063-0.184-0.069-0.4-0.096-0.615
		c0.02-0.214,0.025-0.454,0.108-0.663c0.076-0.215,0.154-0.441,0.286-0.62C5.136,40.858,5.27,40.673,5.431,40.532z"/>
</g>
</svg>