<?xml version="1.0" encoding="iso-8859-1"?>
<!-- Uploaded to: SVG Repo, www.svgrepo.com, Generator: SVG Repo Mixer Tools -->
<!DOCTYPE svg PUBLIC "-//W3C//DTD SVG 1.1//EN" "http://www.w3.org/Graphics/SVG/1.1/DTD/svg11.dtd">
<svg fill="#000000" height="800px" width="800px" version="1.1" id="Capa_1" xmlns="http://www.w3.org/2000/svg" xmlns:xlink="http://www.w3.org/1999/xlink" 
	 viewBox="0 0 323.332 323.332" xml:space="preserve">
<g>
	<path d="M317.666,20.666V0h-312v20.666h19v126h-19v20.666h19v135.334h-19v20.666h312v-20.666h-19V167.332h19v-20.666h-19v-126
		H317.666z M232.332,44.891H271v76.442h-38.668V44.891z M52.332,44.891H91v76.442H52.332V44.891z M122.334,302.666H61V187.999
		h61.334V302.666z M142.332,44.891H181v76.442h-38.668V44.891z M272.522,190.891v19.364v2.962c0,3.797-2.788,6.946-6.422,7.53
		v47.143h-52.422v-47.143c-2.84-0.457-5.16-2.479-6.039-5.155c-0.879,2.677-3.199,4.699-6.039,5.155v47.143h-52.422v-47.143
		c-3.634-0.585-6.422-3.734-6.422-7.53v-2.962v-19.364v-3.033h3.033h9.201h3.033h0.264h9.203h3.033h0.266h9.201h3.033h0.264h9.203
		h3.033h0.264h9.201h2.268h0.766h2.268h9.201h3.033h0.264h9.203h3.033h0.266h9.201h3.033h0.264h9.203h3.033h0.264h9.201h3.033
		V190.891z"/>
	<path d="M195.787,210.255v2.962c0,2.541,2.059,4.603,4.602,4.603c2.542,0,4.6-2.062,4.6-4.603v-2.962v-19.364h-9.201V210.255z"/>
	<path d="M145.789,210.255v2.962c0,2.541,2.059,4.603,4.602,4.603c2.541,0,4.6-2.062,4.6-4.603v-2.962v-19.364h-9.201V210.255z"/>
	<path d="M158.287,210.255v2.962c0,2.541,2.061,4.603,4.603,4.603c2.54,0,4.601-2.062,4.601-4.603v-2.962v-19.364h-9.203V210.255z"
		/>
	<path d="M170.789,210.255v2.962c0,2.541,2.058,4.603,4.6,4.603c2.543,0,4.602-2.062,4.602-4.603v-2.962v-19.364h-9.201V210.255z"/>
	<path d="M183.287,210.255v2.962c0,2.541,2.061,4.603,4.602,4.603c2.54,0,4.602-2.062,4.602-4.603v-2.962v-19.364h-9.203V210.255z"
		/>
	<path d="M210.289,210.255v2.962c0,2.541,2.059,4.603,4.602,4.603c2.541,0,4.6-2.062,4.6-4.603v-2.962v-19.364h-9.201V210.255z"/>
	<path d="M247.787,210.255v2.962c0,2.541,2.061,4.603,4.602,4.603c2.54,0,4.602-2.062,4.602-4.603v-2.962v-19.364h-9.203V210.255z"
		/>
	<path d="M260.287,210.255v2.962c0,2.541,2.059,4.603,4.602,4.603c2.542,0,4.6-2.062,4.6-4.603v-2.962v-19.364h-9.201V210.255z"/>
	<path d="M222.787,210.255v2.962c0,2.541,2.061,4.603,4.603,4.603c2.54,0,4.601-2.062,4.601-4.603v-2.962v-19.364h-9.203V210.255z"
		/>
	<path d="M235.289,210.255v2.962c0,2.541,2.058,4.603,4.6,4.603c2.543,0,4.602-2.062,4.602-4.603v-2.962v-19.364h-9.201V210.255z"/>
</g>
</svg>