<?xml version="1.0" encoding="iso-8859-1"?>
<!-- Uploaded to: SVG Repo, www.svgrepo.com, Generator: SVG Repo Mixer Tools -->
<!DOCTYPE svg PUBLIC "-//W3C//DTD SVG 1.1//EN" "http://www.w3.org/Graphics/SVG/1.1/DTD/svg11.dtd">
<svg fill="#000000" height="800px" width="800px" version="1.1" id="Capa_1" xmlns="http://www.w3.org/2000/svg" xmlns:xlink="http://www.w3.org/1999/xlink" 
	 viewBox="0 0 50.803 50.803" xml:space="preserve">
<g>
	<path d="M50.392,1.001c-0.446-0.326-1.072-0.228-1.397,0.219l-9.374,12.86c-0.365-0.316-0.859-0.472-1.341-0.398
		c-0.011-0.319-0.115-0.63-0.308-0.898c-0.024-0.033-0.059-0.054-0.085-0.085l3.97-11.299c0.183-0.521-0.091-1.092-0.612-1.274
		c-0.521-0.187-1.092,0.091-1.275,0.612l-3.9,11.101c-0.062-0.166-0.141-0.326-0.256-0.467c-0.458-0.561-1.289-0.765-1.943-0.487
		c-0.071-0.24-0.196-0.461-0.371-0.65c-0.517-0.558-1.421-0.689-2.065-0.312c-0.26-0.587-0.848-0.992-1.529-0.992
		c-0.371,0-0.721,0.123-1.005,0.342c-0.294-0.488-0.829-0.806-1.43-0.806c-0.45,0-0.862,0.174-1.166,0.477
		c-0.309-0.393-0.784-0.633-1.308-0.633s-0.999,0.24-1.307,0.633c-0.304-0.303-0.716-0.477-1.166-0.477
		c-0.601,0-1.136,0.317-1.43,0.806c-0.284-0.219-0.634-0.342-1.005-0.342c-0.681,0-1.269,0.405-1.529,0.992
		c-0.626-0.367-1.487-0.245-2.011,0.271c-1.207-1.33-2.816-2.737-4.501-3.287L11.173,6.62l-0.357,0.849
		c-0.079,0.188-1.436,3.511-0.581,6.761c-0.076,0.084-0.149,0.171-0.207,0.271c-0.174,0.298-0.248,0.638-0.218,0.973
		c-0.626-0.024-1.205,0.322-1.506,0.879C8.109,16.71,8.055,17.11,8.139,17.49c-0.576,0.059-1.091,0.423-1.34,0.962
		c-0.187,0.403-0.203,0.848-0.061,1.247c-0.529,0.12-0.97,0.495-1.175,1.022c-0.175,0.449-0.146,0.935,0.062,1.346
		c-0.26,0.096-0.494,0.255-0.677,0.469c-0.054,0.063-0.094,0.133-0.138,0.201H2.374c-0.652,0-1.282,0.274-1.729,0.752
		c-0.451,0.482-0.684,1.137-0.64,1.797c0.592,8.747,6.156,13.139,14.329,17.041c0.912,0.436,1.666,1.161,2.122,2.042
		c0.446,0.862,0.375,1.974-0.194,2.92c-0.429,0.712-0.441,1.568-0.032,2.292c0.409,0.725,1.149,1.156,1.98,1.156h13.488
		c0.831,0,1.572-0.432,1.98-1.156c0.409-0.724,0.397-1.58-0.042-2.31c-0.559-0.929-0.629-2.04-0.184-2.901
		c0.456-0.882,1.209-1.607,2.122-2.043c8.172-3.902,13.736-8.294,14.328-17.041c0.044-0.66-0.188-1.314-0.64-1.797
		c-0.446-0.478-1.077-0.752-1.729-0.752h-2.35c-0.043-0.069-0.084-0.139-0.138-0.201c-0.183-0.213-0.415-0.372-0.678-0.468
		c0.208-0.411,0.237-0.896,0.063-1.347c-0.205-0.527-0.646-0.902-1.175-1.022c0.143-0.399,0.126-0.844-0.061-1.247
		c-0.25-0.539-0.765-0.903-1.341-0.962c0.084-0.38,0.031-0.779-0.164-1.138c-0.172-0.318-0.438-0.544-0.748-0.692l9.667-13.262
		C50.937,1.952,50.838,1.327,50.392,1.001z M9.623,32.552c-0.181,0.139-0.395,0.206-0.607,0.206c-0.301,0-0.598-0.135-0.795-0.393
		c-0.726-0.949-1.327-1.971-1.789-3.036c-0.219-0.507,0.014-1.096,0.521-1.315c0.506-0.22,1.095,0.014,1.315,0.521
		c0.396,0.917,0.915,1.797,1.542,2.616C10.146,31.589,10.062,32.217,9.623,32.552z M22.049,40.133
		c-0.153,0.396-0.532,0.64-0.933,0.64c-0.12,0-0.242-0.021-0.36-0.067c-4.102-1.582-7.202-3.315-9.755-5.454
		c-0.423-0.354-0.479-0.985-0.125-1.409c0.355-0.423,0.985-0.479,1.409-0.124c2.38,1.993,5.3,3.621,9.191,5.122
		C21.991,39.039,22.248,39.618,22.049,40.133z M39.698,17.577c-0.064,0.363-0.007,0.743,0.174,1.079
		c0.256,0.472,0.715,0.787,1.231,0.859c-0.12,0.384-0.096,0.804,0.082,1.188c0.209,0.453,0.608,0.782,1.074,0.91
		c-0.159,0.347-0.193,0.743-0.089,1.123H7.825c0.104-0.38,0.07-0.774-0.088-1.122c0.468-0.124,0.86-0.45,1.073-0.911
		c0.178-0.384,0.202-0.805,0.082-1.188c0.517-0.072,0.976-0.388,1.231-0.859c0.182-0.336,0.239-0.716,0.174-1.079
		c0.504-0.006,0.985-0.25,1.295-0.65c0.172,0.213,0.359,0.416,0.557,0.609l0.001,0.001h0c0.004,0.004,0.007,0.008,0.011,0.012
		l0.066,0.062l0.046,0.044c0.758,0.709,1.68,1.083,2.665,1.083h0h0c0.017,0,0.034-0.003,0.051-0.004
		c1.443-0.02,2.837-0.855,3.563-2.148c0,0,0,0,0-0.001h0c0.011-0.019,0.018-0.039,0.028-0.059c0.074-0.136,0.143-0.274,0.199-0.415
		c0.003-0.007,0.004-0.014,0.007-0.021c0.124-0.314,0.206-0.635,0.242-0.96c0.013-0.113,0.013-0.226,0.015-0.339
		c0.001-0.054,0.008-0.107,0.007-0.161c-0.016-0.667-0.214-1.335-0.592-1.958c-0.002-0.004-0.006-0.009-0.008-0.013
		c-0.095-0.155-0.224-0.351-0.381-0.576c-0.014-0.021-0.023-0.036-0.038-0.057c0.221,0.107,0.466,0.165,0.719,0.165
		c0.658,0,1.229-0.379,1.501-0.935c0.275,0.195,0.606,0.304,0.957,0.304c0.579,0,1.096-0.295,1.396-0.752
		c0.649,0.599,1.821,0.521,2.393-0.151c0.572,0.676,1.744,0.75,2.393,0.151c0.3,0.457,0.818,0.752,1.396,0.752
		c0.351,0,0.682-0.108,0.957-0.304c0.271,0.556,0.843,0.935,1.501,0.935c0.274,0,0.539-0.067,0.775-0.193
		c0.073,0.217,0.192,0.417,0.352,0.591c0.455,0.49,1.205,0.661,1.816,0.43c0.053,0.259,0.167,0.503,0.339,0.713
		c0.185,0.226,0.434,0.39,0.704,0.494l-1.765,5.024c-0.183,0.521,0.091,1.092,0.612,1.274c0.11,0.039,0.222,0.057,0.332,0.057
		c0.413,0,0.799-0.257,0.943-0.669l1.546-4.401c0.333,0.242,0.744,0.366,1.158,0.319c-0.006,0.117,0.016,0.232,0.035,0.347
		l-2.707,3.713c-0.325,0.446-0.227,1.071,0.219,1.396c0.178,0.13,0.384,0.192,0.588,0.192c0.309,0,0.613-0.143,0.809-0.411
		l2.56-3.512C39.607,17.562,39.652,17.576,39.698,17.577z"/>
	<path d="M24.661,16.444l1-1c0.391-0.391,0.391-1.023,0-1.414s-1.023-0.391-1.414,0l-1,1c-0.391,0.391-0.391,1.023,0,1.414
		c0.195,0.195,0.451,0.293,0.707,0.293S24.466,16.639,24.661,16.444z"/>
	<path d="M20.661,17.03c-0.391-0.391-1.023-0.391-1.414,0s-0.391,1.023,0,1.414l1,1c0.195,0.195,0.451,0.293,0.707,0.293
		s0.512-0.098,0.707-0.293c0.391-0.391,0.391-1.023,0-1.414L20.661,17.03z"/>
	<path d="M25.247,19.03l-1,1c-0.391,0.391-0.391,1.023,0,1.414c0.195,0.195,0.451,0.293,0.707,0.293s0.512-0.098,0.707-0.293l1-1
		c0.391-0.391,0.391-1.023,0-1.414S25.638,18.639,25.247,19.03z"/>
	<path d="M29.954,17.737c0.256,0,0.512-0.098,0.707-0.293c0.391-0.391,0.391-1.023,0-1.414l-1-1c-0.391-0.391-1.023-0.391-1.414,0
		s-0.391,1.023,0,1.414l1,1C29.442,17.639,29.698,17.737,29.954,17.737z"/>
	<path d="M30.247,19.03l-1,1c-0.391,0.391-0.391,1.023,0,1.414c0.195,0.195,0.451,0.293,0.707,0.293s0.512-0.098,0.707-0.293l1-1
		c0.391-0.391,0.391-1.023,0-1.414C31.271,18.639,30.638,18.639,30.247,19.03z"/>
	<path d="M12.247,19.03l-1,1c-0.391,0.391-0.391,1.023,0,1.414c0.195,0.195,0.451,0.293,0.707,0.293s0.512-0.098,0.707-0.293l1-1
		c0.391-0.391,0.391-1.023,0-1.414S12.638,18.639,12.247,19.03z"/>
	<path d="M17.954,19.737h-1c-0.552,0-1,0.447-1,1s0.448,1,1,1h1c0.552,0,1-0.447,1-1S18.506,19.737,17.954,19.737z"/>
</g>
</svg>